# xmcd
#
# Track frame offsets: 
#        150
#        18821
#        43866
#        57570
#        81228
#        134784
#        150711
#        164905
#        177413
#        203673
#        218986
#        238793
#        283943
#        298493
#        318074
#
# Disc length: 4524 seconds
#
# Revision: 0
# Processed by: cddbd v1.5.2PL0 Copyright (c) Steve Scherf et al.
# Submitted via: ExactAudioCopyFreeDBPlugin 1.0
#
DISCID=f111aa0f
DTITLE=Diddley Squat Blues Band - Live!
DYEAR=2008
DGENRE=Blues
TTITLE0=Caught You with Your Pants Down
TTITLE1=Milk of Amnesia
TTITLE2=Hard Man
TTITLE3=No Good Comin'
TTITLE4=OCD
TTITLE5=Ridin' the Range
TTITLE6=Gettin' Old
TTITLE7=$30 a Man Blues Band
TTITLE8=T-Bone Shuffle
TTITLE9=Chauffeur Blues
TTITLE10=Gimme' One More Chance
TTITLE11=Diddley Squat
TTITLE12=Heart Hotel
TTITLE13=Man of Color
TTITLE14=Lily Mae
EXTD=
EXTT0=
EXTT1=
EXTT2=
EXTT3=
EXTT4=
EXTT5=
EXTT6=
EXTT7=
EXTT8=
EXTT9=
EXTT10=
EXTT11=
EXTT12=
EXTT13=
EXTT14=
PLAYORDER=
